<?xml version="1.0" encoding="iso-8859-1"?>
<!-- Uploaded to: SVG Repo, www.svgrepo.com, Generator: SVG Repo Mixer Tools -->
<svg height="800px" width="800px" version="1.1" id="Layer_1" xmlns="http://www.w3.org/2000/svg" xmlns:xlink="http://www.w3.org/1999/xlink" 
	 viewBox="0 0 512 512" xml:space="preserve">
<g>
	<path style="fill:#414251;" d="M379.6,194.15c0-4.9,4-8.8,8.8-8.8h53c4.9,0,8.8,4,8.8,8.8v8.8H512c0-39-31.6-70.6-70.6-70.6h-68.5
		c-12.1,0-23.2-6.8-28.6-17.7c-5.4-10.8-16.5-17.7-28.6-17.7H196.3c-12.1,0-23.2,6.8-28.6,17.7s-16.5,17.7-28.6,17.7H70.6
		c-39,0-70.6,31.6-70.6,70.6h35.3c0-14.6,11.9-26.5,26.5-26.5s26.5,11.9,26.5,26.5h35.3c0-14.6,11.9-26.5,26.5-26.5
		s26.5,11.9,26.5,26.5h20.9c16.8-11.1,36.9-17.7,58.5-17.7s41.7,6.5,58.5,17.7h65.1V194.15z"/>
	<path style="fill:#414251;" d="M314.5,379.55c-16.8,11.1-36.9,17.7-58.5,17.7s-41.7-6.5-58.5-17.7H0c0,29.3,23.7,53,53,53h406
		c29.3,0,53-23.7,53-53H314.5z"/>
</g>
<g>
	<path style="fill:#5D5F72;" d="M97.1,105.85c-4.9,0-8.8-4-8.8-8.8v-8.8c0-4.9,3.9-8.8,8.8-8.8s8.8,4,8.8,8.8v8.8
		C105.9,101.95,102,105.85,97.1,105.85"/>
	<path style="fill:#5D5F72;" d="M132.4,132.35h-8.8c-4.9,0-8.8-4-8.8-8.8s3.9-8.8,8.8-8.8h8.8c4.9,0,8.8,4,8.8,8.8
		S137.3,132.35,132.4,132.35"/>
	<path style="fill:#5D5F72;" d="M70.6,132.35h-8.8c-4.9,0-8.8-4-8.8-8.8s3.9-8.8,8.8-8.8h8.8c4.9,0,8.8,4,8.8,8.8
		S75.5,132.35,70.6,132.35"/>
	<path style="fill:#5D5F72;" d="M115.8,113.65c-2.3,0-4.5-0.9-6.2-2.6c-3.5-3.5-3.5-9,0-12.5l6.2-6.2c3.5-3.4,9-3.4,12.5,0
		c3.5,3.5,3.5,9,0,12.5l-6.2,6.2C120.3,112.75,118.1,113.65,115.8,113.65"/>
	<path style="fill:#5D5F72;" d="M78.4,113.65c-2.3,0-4.5-0.9-6.2-2.6l-6.2-6.2c-3.5-3.5-3.5-9,0-12.5c3.5-3.4,9-3.4,12.5,0l6.2,6.2
		c3.5,3.5,3.5,9,0,12.5C82.9,112.75,80.6,113.65,78.4,113.65"/>
	<path style="fill:#5D5F72;" d="M122,132.35c1-2.8,1.6-5.7,1.6-8.8c0-14.6-11.9-26.5-26.5-26.5s-26.5,11.9-26.5,26.5
		c0,3.1,0.6,6.1,1.6,8.8H122z"/>
	<path style="fill:#5D5F72;" d="M432.6,132.35h-53v-26.5c0-4.9,4-8.8,8.8-8.8h35.3c4.9,0,8.8,4,8.8,8.8v26.5H432.6z"/>
</g>
<g>
	<path style="fill:#363644;" d="M388.4,220.75h53c4.9,0,9-4,9-9v-8.8v-8.8c0-4.9-4-9-9-9h-53c-4.9,0-9,4-9,9v8.8v8.8
		C379.5,216.75,383.5,220.75,388.4,220.75z"/>
	<path style="fill:#363644;" d="M61.8,229.45c14.6,0,26.5-11.9,26.5-26.5h0.1c0-14.7-11.9-26.6-26.6-26.6s-26.6,11.9-26.6,26.6h0.1
		C35.3,217.65,47.2,229.45,61.8,229.45z"/>
</g>
<path style="fill:#5D5F72;" d="M450.3,202.95v8.8c0,4.9-4,9-9,9h-53c-4.9,0-9-4-9-9v-8.8h-65c-16.8-11.1-36.9-17.7-58.5-17.7
	s-41.7,6.5-58.5,17.7h-20.8l0,0c0,14.7-11.9,26.6-26.6,26.6c-14.7,0-26.6-11.9-26.6-26.6l0,0H88.4h-0.1c0,14.6-11.9,26.5-26.5,26.5
	s-26.5-11.8-26.5-26.5h-0.1H0v176.6c0,29.3,23.7,53,53,53h406c29.3,0,53-23.7,53-53v-176.6H450.3z"/>
<path style="fill:#363644;" d="M150.1,229.55c14.7,0,26.6-11.9,26.6-26.6l0,0c0-14.7-11.9-26.6-26.6-26.6
	c-14.7,0-26.6,11.9-26.6,26.6l0,0C123.5,217.65,135.4,229.55,150.1,229.55z"/>
<polygon style="fill:#ECBA16;" points="211.9,150.05 300.1,150.05 300.1,97.05 211.9,97.05 "/>
<g>
	<path style="fill:#363644;" d="M158.9,326.45c-19.4,0-35.2-15.8-35.2-35.2c0-4.9-4-9-9-9s-9,4-9,9c0,29.3,23.8,53.1,53.1,53.1
		c4.9,0,9-4,9-9S163.8,326.45,158.9,326.45z"/>
	<path style="fill:#363644;" d="M361.9,273.45l-1.7,0.4v0.1c1,6.3,1.5,11.9,1.5,17.3s-0.5,11-1.5,17.3v0.1l1.7,0.4l44.1,8.8h0.1
		v-53.3L361.9,273.45z"/>
</g>
<path style="fill:#434C6D;" d="M361.9,291.25c0,58.5-47.4,105.9-105.9,105.9s-105.9-47.4-105.9-105.9s47.4-105.9,105.9-105.9
	S361.9,232.75,361.9,291.25"/>
<path style="fill:#7383BF;" d="M256,404.65c-62.5,0-113.4-50.9-113.4-113.4s50.9-113.4,113.4-113.4s113.4,50.9,113.4,113.4
	C369.4,353.85,318.5,404.65,256,404.65z M256,192.85c-54.3,0-98.4,44.2-98.4,98.4c0,54.3,44.2,98.4,98.4,98.4
	c54.3,0,98.4-44.2,98.4-98.4C354.4,236.95,310.3,192.85,256,192.85z"/>
<path style="fill:#FFFFFF;" d="M326.6,291.25c0,39-31.6,70.6-70.6,70.6s-70.6-31.6-70.6-70.6s31.6-70.6,70.6-70.6
	S326.6,252.25,326.6,291.25"/>
<g>
	<path style="fill:#434C6D;" d="M229.5,317.75c0,4.9-4,8.8-8.8,8.8c-4.9,0-8.8-4-8.8-8.8s4-8.8,8.8-8.8
		C225.6,308.95,229.5,312.85,229.5,317.75"/>
	<path style="fill:#434C6D;" d="M220.7,300.05c-4.9,0-8.8-4-8.8-8.8c0-24.3,19.8-44.1,44.1-44.1c4.9,0,8.8,4,8.8,8.8
		c0,4.8-3.9,8.8-8.8,8.8c-14.6,0-26.5,11.9-26.5,26.5C229.5,296.15,225.6,300.05,220.7,300.05"/>
</g>
</svg>